<svg id="Ebene_1" data-name="Ebene 1" xmlns="http://www.w3.org/2000/svg" viewBox="0 0 300 56"><defs><style>.cls-1{fill:#41b783;}.cls-2{fill:#34495e;}</style></defs><title>Zeichenfläche 1</title><path class="cls-1" d="M71.75,36.54c-1.62,4.1-2.3,6.19-5.29,9.45-2.65,6.43-2.27,6.8-8.7,7-3.76.27-8.48-.88-12-2a45,45,0,0,1-9.4-4.4,4.73,4.73,0,0,1-1.49-1c.45,0,.86.07,1.27.12,3.88.5,7.66.3,11.1-1.81a7.47,7.47,0,0,0,3.44-4.18,3.52,3.52,0,0,0-2.29-4.63,14.8,14.8,0,0,0-7.27-.32,47.4,47.4,0,0,1-6.91.93,24.92,24.92,0,0,1-8.42-1,8.58,8.58,0,0,1-4.79-4c1-.12,1.85-.23,2.74-.36a8.55,8.55,0,0,0,5.46-3.18,5.66,5.66,0,0,0,1-5.14,11.07,11.07,0,0,0-7.07-8.25c-2.58-1-4.89-.57-7,1.86a10.94,10.94,0,0,1-7,4,6.74,6.74,0,0,1-4.11-.92A16.28,16.28,0,0,1,0,13.87a5.41,5.41,0,0,1,2,.34,15.51,15.51,0,0,0,5.38.45c2.93-.37,5.33-1.94,5.69-4.83.23-1.78-.05-2.77.44-4.49C13.9,4,16,2.13,17.11,1.56A24.51,24.51,0,0,1,23.73.62c4.35-.19,4,0,9.27,1.13,3.4.57,4.22-.12,6,.94C41.24,4,39.61,5.26,41.88,4c1.7-.93.55,1.26,1-.53"/><polygon class="cls-1" points="31.29 1.75 34.89 1.75 63.62 51.85 92.74 1.75 101.62 1.75 63.62 51.85 31.29 1.75"/><polygon class="cls-2" points="34.89 1.75 52.66 1.75 63.81 21.03 74.97 1.75 92.74 1.75 63.62 51.85 34.89 1.75"/><path class="cls-2" d="M139.27,1.77V31.68q0,9.75-5.53,15.11t-15.92,5.35q-10.17,0-15.62-5.2T96.75,32V1.77h13.49V30.93q0,5.28,2,7.65A7.09,7.09,0,0,0,118,41q4.11,0,6-2.36c1.23-1.58,1.85-4.15,1.85-7.73V1.77Z"/><path class="cls-2" d="M178.2,51.46H148.7V1.77h29.5V12.54H162.13v7.82H177V31.14H162.13v9.38H178.2Z"/><path class="cls-2" d="M195.7,5a5,5,0,0,0-4.3,2.09,9.67,9.67,0,0,0-1.53,5.81q0,7.77,5.83,7.76a18.27,18.27,0,0,0,5.92-1.22v4.13a16.52,16.52,0,0,1-6.38,1.19c-3.38,0-6-1-7.75-3.07s-2.68-5-2.68-8.82a14.36,14.36,0,0,1,1.32-6.34,9.52,9.52,0,0,1,3.78-4.17A11.22,11.22,0,0,1,195.7.9a15.6,15.6,0,0,1,6.79,1.64l-1.59,4a27.65,27.65,0,0,0-2.61-1.08A7.78,7.78,0,0,0,195.7,5Z"/><path class="cls-2" d="M222.06,24.44l-1.68-5.52h-8.46l-1.69,5.52h-5.3l8.19-23.3h6l8.22,23.3Zm-2.86-9.65c-1.55-5-2.43-7.83-2.62-8.49s-.34-1.17-.43-1.56c-.35,1.36-1.34,4.71-3,10Z"/><path class="cls-2" d="M241.4,24.44l-5.58-18.2h-.15q.32,5.55.31,7.41V24.44h-4.4V1.24h6.7L243.77,19h.09l5.83-17.74h6.7v23.2H251.8v-11c0-.52,0-1.12,0-1.8s.09-2.47.22-5.39h-.15l-6,18.17Z"/><path class="cls-2" d="M279.56,8.47a7.09,7.09,0,0,1-2.35,5.73q-2.34,2-6.65,2h-2.11v8.25h-4.92V1.24h7.41q4.21,0,6.42,1.81A6.66,6.66,0,0,1,279.56,8.47Zm-11.11,3.69h1.61a5.37,5.37,0,0,0,3.4-.9,3.15,3.15,0,0,0,1.13-2.61,3.23,3.23,0,0,0-.95-2.56,4.42,4.42,0,0,0-3-.82h-2.23Z"/><path class="cls-1" d="M185.43,28.53h8.09q4.74,0,7,1.4a4.77,4.77,0,0,1,2.29,4.38,5.5,5.5,0,0,1-1,3.33,4.52,4.52,0,0,1-2.63,1.78v.16a5.38,5.38,0,0,1,3.12,1.9,5.72,5.72,0,0,1,1,3.46,5.94,5.94,0,0,1-2.37,5,10.4,10.4,0,0,1-6.47,1.81h-9Zm6.27,8.9h1.89a3.39,3.39,0,0,0,2.08-.55,1.92,1.92,0,0,0,.74-1.65c0-1.3-1-1.95-2.95-1.95H191.7Zm0,4.59v4.87h2.2c2,0,2.94-.82,2.94-2.47a2.11,2.11,0,0,0-.79-1.78,3.61,3.61,0,0,0-2.27-.62Z"/><path class="cls-1" d="M221.11,51.73H207.33V28.53h13.78v5H213.6v3.65h7v5h-7v4.38h7.51Z"/><path class="cls-1" d="M231.44,43.29v8.44h-6.27V28.53h7.6q9.47,0,9.46,6.86a6.84,6.84,0,0,1-3.94,6.23l6.77,10.11H238L233,43.29Zm0-4.71h1.17q3.28,0,3.29-2.91c0-1.6-1.08-2.39-3.22-2.39h-1.24Z"/><path class="cls-1" d="M247.17,51.73V28.53h6.27V46.67h8.93v5.06Z"/><path class="cls-1" d="M266.08,51.73V28.53h6.31v23.2Z"/><path class="cls-1" d="M299.49,51.73h-8.22L282.8,35.39h-.15q.32,3.86.31,5.88V51.73H277.4V28.53h8.19L294,44.65h.1c-.15-2.33-.22-4.21-.22-5.63V28.53h5.58Z"/><path class="cls-2" d="M291,12.07h-7.31V10.53l2.63-2.65c.77-.8,1.28-1.35,1.52-1.66a3.71,3.71,0,0,0,.52-.86,2.24,2.24,0,0,0,.15-.81,1.2,1.2,0,0,0-.34-.94,1.39,1.39,0,0,0-.93-.31,2.73,2.73,0,0,0-1.18.28,6.25,6.25,0,0,0-1.2.8L283.7,3A7.84,7.84,0,0,1,285,2a4.9,4.9,0,0,1,1.11-.42,6.15,6.15,0,0,1,1.35-.14,4,4,0,0,1,1.73.36,2.67,2.67,0,0,1,1.58,2.47,3.61,3.61,0,0,1-.25,1.36,5.59,5.59,0,0,1-.79,1.3,20,20,0,0,1-1.88,1.89l-1.34,1.27v.1H291Z"/><path class="cls-2" d="M299.35,6.84a7.29,7.29,0,0,1-.9,4.06,3.13,3.13,0,0,1-2.76,1.31A3.07,3.07,0,0,1,293,10.85a7.1,7.1,0,0,1-.92-4,7.3,7.3,0,0,1,.89-4.08,3.11,3.11,0,0,1,2.76-1.32,3.07,3.07,0,0,1,2.73,1.38A7.15,7.15,0,0,1,299.35,6.84Zm-5.12,0a7.93,7.93,0,0,0,.34,2.76,1.15,1.15,0,0,0,1.12.83,1.16,1.16,0,0,0,1.11-.84,7.89,7.89,0,0,0,.35-2.75,8,8,0,0,0-.35-2.77,1.16,1.16,0,0,0-2.23,0A8.25,8.25,0,0,0,294.23,6.84Z"/><path class="cls-2" d="M289.2,24.53H287V18.47l0-1,0-1.09a9.19,9.19,0,0,1-.76.72l-1.2,1L284,16.75l3.37-2.68h1.82Z"/><path class="cls-2" d="M299.36,18.53a7,7,0,0,1-1.3,4.62,4.92,4.92,0,0,1-3.94,1.52,7.15,7.15,0,0,1-1.41-.1V22.8A5.18,5.18,0,0,0,294,23a4.32,4.32,0,0,0,1.82-.33,2.32,2.32,0,0,0,1.1-1,4.61,4.61,0,0,0,.44-1.92h-.09a2.52,2.52,0,0,1-1,.94,3.05,3.05,0,0,1-1.36.27,2.74,2.74,0,0,1-2.15-.87,3.51,3.51,0,0,1-.79-2.44,3.63,3.63,0,0,1,1-2.66,3.46,3.46,0,0,1,2.6-1,3.72,3.72,0,0,1,2,.55,3.49,3.49,0,0,1,1.34,1.58A6,6,0,0,1,299.36,18.53Zm-3.78-2.81a1.3,1.3,0,0,0-1.07.47,2.1,2.1,0,0,0-.39,1.36,1.88,1.88,0,0,0,.35,1.2,1.27,1.27,0,0,0,1.07.45,1.67,1.67,0,0,0,1.15-.44,1.35,1.35,0,0,0,.48-1,2.28,2.28,0,0,0-.45-1.43A1.36,1.36,0,0,0,295.58,15.72Z"/></svg>