<?xml version="1.0" encoding="utf-8"?>
<!-- Generator: Adobe Illustrator 23.0.3, SVG Export Plug-In . SVG Version: 6.00 Build 0)  -->
<svg version="1.1" id="Warstwa_3" xmlns="http://www.w3.org/2000/svg" xmlns:xlink="http://www.w3.org/1999/xlink" x="0px" y="0px"
	 viewBox="0 0 143 43" style="enable-background:new 0 0 143 43;" xml:space="preserve">
<style type="text/css">
	.st0{fill:#FFFFFF;}
	.st1{fill:#2EB99B;}
	.st2{fill:#179E82;}
</style>
<g>
	<path class="st0" d="M52.5,29.3c0,0,2.5,2.9,6.1,2.9c2.3,0,4.1-1.4,4.1-3.6c0-5.1-11.7-4.3-11.7-11.8c0-3.6,3.2-6.5,7.7-6.5
		c2.6,0,6.9,1.2,6.9,4.5v2h-3.2v-1.1c0-1.3-1.8-2.2-3.7-2.2c-2.6,0-4.2,1.4-4.2,3.3c0,4.9,11.6,3.8,11.6,11.7c0,3.7-2.9,6.9-7.7,6.9
		c-5.1,0-8-3.6-8-3.6L52.5,29.3z"/>
	<path class="st0" d="M71.7,39.2c1.3,0,2.4-1,3-2.5l0.8-1.9l-5.9-13.7c-0.2-0.5-0.5-0.7-1.1-0.7h-0.4v-2.8h2c1.4,0,1.9,0.4,2.5,1.7
		l3.9,9.8c0.3,0.9,0.6,2.1,0.6,2.1h0.1c0,0,0.2-1.2,0.6-2.1l3.6-9.8c0.5-1.4,1.1-1.7,2.5-1.7h2v2.8h-0.4c-0.5,0-0.9,0.1-1.1,0.7
		L77.4,38c-1.1,2.7-3.2,4.1-5.6,4.1c-2.6,0-4.1-1.7-4.1-1.7l1.4-2.4C69.2,38,70.2,39.2,71.7,39.2z"/>
	<path class="st0" d="M89.2,14.3c0-0.5-0.3-0.8-0.8-0.8H87v-2.8h3.3c1.5,0,2.2,0.7,2.2,2.2v18.4c0,0.5,0.3,0.8,0.8,0.8h1.4v2.8h-3.3
		c-1.5,0-2.2-0.7-2.2-2.2V14.3z"/>
	<path class="st0" d="M99.5,21.1c0-0.5-0.3-0.8-0.8-0.8h-1.4v-2.8h3.3c1.5,0,2.2,0.7,2.2,2.2v11.5c0,0.5,0.3,0.8,0.8,0.8h1.4v2.8
		h-3.3c-1.5,0-2.2-0.7-2.2-2.2V21.1z M99.6,10.7h3v3.5h-3V10.7z"/>
	<path class="st0" d="M109.2,21.1c0-0.5-0.3-0.8-0.8-0.8H107v-2.8h3.3c1.6,0,2.2,0.7,2.2,2.1v8.2c0,2.4,0.5,4.3,3.2,4.3
		c3.6,0,5.7-3.1,5.7-6.5v-8.1h3.3v13.7c0,0.5,0.3,0.8,0.8,0.8h1.4v2.8h-3.2c-1.5,0-2.2-0.7-2.2-1.9v-0.7c0-0.5,0-1,0-1h-0.1
		c-0.7,1.7-2.9,4-6.4,4c-3.9,0-5.9-2.1-5.9-6.6V21.1z"/>
	<path class="st0" d="M130.7,30c0,0,2.1,2.6,5.2,2.6c1.6,0,3-0.7,3-2.2c0-3.1-9.5-2.8-9.5-8.4c0-3.3,2.9-4.9,6.4-4.9
		c2.1,0,5.7,0.7,5.7,3.4v1.6h-3v-0.9c0-1-1.5-1.5-2.6-1.5c-2,0-3.2,0.7-3.2,2.1c0,3.3,9.5,2.6,9.5,8.4c0,3.1-2.7,5.1-6.4,5.1
		c-4.6,0-6.9-3-6.9-3L130.7,30z"/>
	<polygon class="st1" points="6.5,25.1 14.8,41.7 30.2,41.8 33.9,36.5 	"/>
	<polygon class="st2" points="0.7,26.9 11.9,42.3 30.2,42.3 33.9,36.6 	"/>
	<polygon class="st2" points="14.1,8.2 19.6,12.4 24.5,3 22.8,1.9 	"/>
	<polygon class="st1" points="30.2,42.3 14.1,8.2 17.6,5.7 36.3,32.9 	"/>
	<polygon class="st1" points="21.3,3 31.8,11.5 24.4,0.7 	"/>
</g>
</svg>
