<svg id="Ebene_1" data-name="Ebene 1" xmlns="http://www.w3.org/2000/svg" viewBox="0 0 300 80"><defs><style>.cls-1{fill:#41b783;}.cls-2,.cls-3,.cls-4{fill:#34495e;}.cls-3{font-size:102.98px;}.cls-3,.cls-4{font-family:OpenSans-Extrabold, Open Sans;font-weight:800;}.cls-4{font-size:26.71px;letter-spacing:-0.05em;}</style></defs><title>Zeichenfläche 1</title><path class="cls-1" d="M106.62,54.46c-2.41,6.07-3.41,9.16-7.84,14C94.87,78,95.43,78.51,85.92,78.79c-5.56.39-12.55-1.31-17.8-3a66.17,66.17,0,0,1-13.9-6.5A6.73,6.73,0,0,1,52,67.81c.67.06,1.28.1,1.88.18,5.74.73,11.34.45,16.43-2.68a11.09,11.09,0,0,0,5.08-6.18A5.21,5.21,0,0,0,72,52.28c-3.53-1.25-7.13-1-10.75-.48-3.4.52-6.76,1.37-10.23,1.38-4.22,0-8.43-.07-12.46-1.47A12.71,12.71,0,0,1,31.5,45.8c1.42-.18,2.74-.34,4-.53a12.69,12.69,0,0,0,8.07-4.71A8.41,8.41,0,0,0,45.11,33a16.39,16.39,0,0,0-10.46-12.2c-3.82-1.51-7.23-.85-10.33,2.74A16.1,16.1,0,0,1,14,29.43,9.89,9.89,0,0,1,8,28.08c-3.1-1.68-5.33-4.3-7.49-7.15a8.05,8.05,0,0,1,3,.51,23.28,23.28,0,0,0,8,.66c4.33-.55,7.88-2.87,8.42-7.15.33-2.63-.08-4.1.65-6.64.56-1.95,3.63-4.75,5.31-5.59a36.19,36.19,0,0,1,9.79-1.4C42,1,41.45,1.32,49.28,3c5,.84,6.25-.17,8.95,1.4,3.25,1.88.84,3.79,4.2,2C64.94,5,63.25,8.22,64,5.57"/><polygon class="cls-1" points="46.77 3 52.08 3 94.59 77.11 137.66 3 150.8 3 94.59 77.11 46.77 3"/><polygon class="cls-2" points="52.08 3 78.37 3 94.87 31.53 111.37 3 137.66 3 94.59 77.11 52.08 3"/><text class="cls-3" transform="translate(136.05 76.54)">UE</text><text class="cls-4" transform="translate(274.12 2.32) rotate(90)">CAMP</text></svg>