<svg id="Ebene_1" data-name="Ebene 1" xmlns="http://www.w3.org/2000/svg" viewBox="0 0 1720 449"><defs><style>.cls-1{fill:#41b783;}.cls-2{fill:#34495e;}.cls-3{fill:#189eff;}</style></defs><title>Zeichenfläche 1</title><path class="cls-1" d="M415.47,212.46c-9.25,23.35-13.09,35.26-30.13,53.82-15.07,36.59-12.92,38.74-49.51,39.82-21.4,1.5-48.3-5.05-68.49-11.59a254.1,254.1,0,0,1-53.49-25c-2.84-1.72-6.19-2.67-8.51-5.65,2.56.23,4.91.38,7.24.68,22.09,2.83,43.61,1.73,63.2-10.29,9.13-5.6,16.22-13.17,19.56-23.79,3.7-11.76-1.39-22.26-13-26.37-13.62-4.8-27.44-3.95-41.38-1.83-13.09,2-26,5.26-39.38,5.31-16.23,0-32.42-.28-47.93-5.68a48.82,48.82,0,0,1-27.22-22.71c5.45-.72,10.53-1.34,15.6-2.06,12.8-1.84,22.93-8.42,31.05-18.14,7.16-8.59,8.07-18.78,5.71-29.22-5.13-22.66-18.83-38.58-40.24-47C123.81,77,110.7,79.51,98.76,93.31c-10.42,12.06-23.18,20.77-39.54,22.84-8.39,1-16.14-1.25-23.41-5.2C23.88,104.46,15.32,94.41,7,83.42c4.34-.54,7.86,1.16,11.44,2,10.13,2.26,20.24,3.84,30.65,2.54,16.68-2.1,30.31-11,32.4-27.51,1.28-10.11-.3-15.75,2.49-25.53,2.16-7.54,14-18.3,20.45-21.53C111.71,10.85,128.11,8,142.1,8c24.76-1.07,22.6,0,52.74,6.46,19.37,3.23,24-.66,34.44,5.38,12.49,7.25,3.24,14.61,16.14,7.53,9.68-5.3,3.15,7.19,5.94-3"/><polygon class="cls-1" points="185.15 14.43 205.6 14.43 369.19 299.64 534.94 14.43 585.52 14.43 369.19 299.64 185.15 14.43"/><polygon class="cls-2" points="205.6 14.43 306.77 14.43 370.27 124.21 433.77 14.43 534.94 14.43 369.19 299.64 205.6 14.43"/><path class="cls-2" d="M799.84,14.55V184.83q0,55.53-31.45,86t-90.65,30.48q-57.87,0-88.92-29.61t-31.05-85.14v-172h76.82v166q0,30,11.22,43.54t33.09,13.54q23.42,0,34-13.45t10.55-44V14.55Z"/><path class="cls-2" d="M1021.51,297.45h-168V14.55h168V75.88H930v44.51h84.76v61.34H930v53.41h91.53Z"/><path class="cls-2" d="M1121.1,32.93q-15.81,0-24.49,11.88t-8.67,33.11q0,44.19,33.16,44.18,13.9,0,33.7-6.95v23.49q-16.26,6.77-36.32,6.77-28.83,0-44.1-17.48t-15.26-50.19q0-20.59,7.5-36.09a54.2,54.2,0,0,1,21.55-23.77q14-8.26,32.93-8.26,19.25,0,38.67,9.3l-9,22.77a149,149,0,0,0-14.9-6.14A44.45,44.45,0,0,0,1121.1,32.93Z"/><path class="cls-2" d="M1271.17,143.61l-9.58-31.44h-48.16l-9.58,31.44h-30.17L1220.3,11h34.24l46.81,132.64ZM1254.9,88.67q-13.28-42.73-15-48.33c-1.12-3.74-1.91-6.69-2.39-8.86q-3,11.56-17.08,57.19Z"/><path class="cls-2" d="M1381.3,143.61,1349.5,40h-.82q1.71,31.62,1.72,42.19v61.44h-25V11.51h38.13l31.26,101h.54l33.16-101h38.13v132.1h-26.11V81.09q0-4.44.13-10.21t1.22-30.72H1441L1407,143.61Z"/><path class="cls-2" d="M1598.5,52.72q0,21.32-13.33,32.61t-37.9,11.29h-12v47h-28V11.51h42.19q24,0,36.55,10.35T1598.5,52.72Zm-63.25,21h9.21q12.93,0,19.34-5.1t6.42-14.86q0-9.85-5.38-14.55T1548,34.46h-12.74Z"/><path class="cls-1" d="M1062.64,166.89h46.08q26.92,0,40,8t13.06,24.89q0,11.11-5.7,19a25.34,25.34,0,0,1-15,10.12v.91q12.3,3.24,17.81,10.84t5.51,19.7q0,18-13.51,28.32T1114.05,299h-51.41Zm35.69,50.69h10.75q7.68,0,11.88-3.16t4.2-9.4q0-11.11-16.8-11.11h-10Zm0,26.11v27.74h12.56q16.71,0,16.72-14.1c0-4.39-1.49-7.77-4.48-10.11s-7.31-3.53-13-3.53Z"/><path class="cls-1" d="M1265.75,299h-78.42V166.89h78.42v28.64H1223v20.78h39.57V245H1223v24.93h42.74Z"/><path class="cls-1" d="M1324.57,250.92V299h-35.69V166.89h43.28q53.85,0,53.85,39,0,23-22.41,35.51L1402.09,299h-40.48l-28-48.07Zm0-26.84h6.69q18.71,0,18.7-16.53,0-13.63-18.34-13.64h-7Z"/><path class="cls-1" d="M1414.11,299V166.89h35.69V270.16h50.87V299Z"/><path class="cls-1" d="M1521.81,299V166.89h35.87V299Z"/><path class="cls-1" d="M1712,299h-46.8L1617,205.92h-.81q1.71,22,1.72,33.52V299h-31.63V166.89h46.62l48.07,91.8h.54q-1.26-20-1.26-32.08V166.89H1712Z"/><path class="cls-2" d="M1663.89,73.18h-41.63V64.42l15-15.11q6.64-6.81,8.68-9.43a20.44,20.44,0,0,0,2.93-4.87,12.32,12.32,0,0,0,.9-4.64,6.77,6.77,0,0,0-2-5.34,7.62,7.62,0,0,0-5.27-1.75,15.14,15.14,0,0,0-6.72,1.59,34.24,34.24,0,0,0-6.81,4.52l-6.84-8.11a44.74,44.74,0,0,1,7.29-5.29,26.94,26.94,0,0,1,6.32-2.39,32.66,32.66,0,0,1,7.65-.83,22.65,22.65,0,0,1,9.86,2,15.73,15.73,0,0,1,6.64,5.7,15.1,15.1,0,0,1,2.37,8.39,20.62,20.62,0,0,1-1.45,7.72A29.85,29.85,0,0,1,1656.3,44a108.25,108.25,0,0,1-10.7,10.8L1638,62v.57h25.94Z"/><path class="cls-2" d="M1711.18,43.4q0,15.62-5.11,23.1T1690.33,74q-10.3,0-15.54-7.73t-5.24-22.86q0-15.76,5.1-23.24t15.68-7.47q10.31,0,15.58,7.82T1711.18,43.4Zm-29.12,0q0,11,1.89,15.71t6.38,4.74q4.39,0,6.35-4.81t2-15.64q0-10.95-2-15.74c-1.32-3.19-3.42-4.79-6.33-4.79s-5.08,1.6-6.36,4.79S1682.06,36.1,1682.06,43.4Z"/><path class="cls-2" d="M1653.39,144.1H1640.8V109.64l.12-5.66.2-6.19q-3.13,3.13-4.36,4.11l-6.84,5.5-6.07-7.58L1643,84.55h10.35Z"/><path class="cls-2" d="M1711.27,110q0,17.6-7.41,26.27t-22.45,8.68a42.23,42.23,0,0,1-8-.57v-10.1a29.48,29.48,0,0,0,7.18.85,25.28,25.28,0,0,0,10.38-1.85,13.15,13.15,0,0,0,6.23-5.83q2.16-4,2.49-10.94h-.49a13.86,13.86,0,0,1-5.46,5.38,17.23,17.23,0,0,1-7.74,1.55q-7.79,0-12.26-5t-4.48-13.87q0-9.57,5.44-15.13t14.8-5.56A21.36,21.36,0,0,1,1701,87a20,20,0,0,1,7.6,9A34.15,34.15,0,0,1,1711.27,110Zm-21.55-16a7.44,7.44,0,0,0-6.11,2.69q-2.2,2.68-2.2,7.74a10.75,10.75,0,0,0,2,6.84,7.3,7.3,0,0,0,6.07,2.53,9.37,9.37,0,0,0,6.56-2.51,7.62,7.62,0,0,0,2.73-5.76,13.15,13.15,0,0,0-2.54-8.19A7.84,7.84,0,0,0,1689.72,94Z"/><g id="Cw8KPl.tif"><path class="cls-2" d="M1062.21,362.15c0-14.69,7-26.27,18.28-30.5,11.14-4.16,23-.16,31.28,11.52,3.64,5.15,5.32,4.92,8.83-.08,7.91-11.27,19.55-15.4,30.45-11.73,11.26,3.79,18.57,14.78,19,29a46.44,46.44,0,0,1-6.11,24.24c-11,19.82-26.37,35.42-42.81,50-3.14,2.8-5.86,3.59-9.38.5-16.53-14.53-31.9-30.17-43-49.82C1064.7,378.28,1062,370.62,1062.21,362.15Z"/></g><path class="cls-3" d="M1349.68,387.05c-4.68-2-8.53-3.86-8.53-6.92,0-2.13,2.42-4.17,6.49-4.17a24.46,24.46,0,0,1,10.08,2.34,2.2,2.2,0,0,0,3-.91l1.63-3.26a2.78,2.78,0,0,0-1-3.46,26.31,26.31,0,0,0-13.74-3.46c-11.39,0-16.06,6.92-16.06,12.82,0,7.74,6,11.6,13.22,14.86,6.51,2.95,10.07,5,10.07,8.14,0,2.64-2.24,4.58-6.21,4.58-5.59,0-9-1.94-11.7-3.46a2.09,2.09,0,0,0-3,.61l-2.14,4.37a1.91,1.91,0,0,0,.82,2.44,27.18,27.18,0,0,0,15.46,4.79c10.48,0,16.79-6.41,16.79-13.74C1364.84,393.87,1358.33,390.72,1349.68,387.05Z"/><path class="cls-3" d="M1287.28,429.52c-4.78-3.6-11.83-6.33-19.3-9.23-8.88-3.44-19-7.34-26.51-13.36-8.56-6.82-12.72-15.42-12.72-26.29a29.76,29.76,0,0,1,11.71-24.14c8.59-6.76,21.61-10.34,37.64-10.34a92.75,92.75,0,0,1,12.58.82.81.81,0,0,0,.82-.45.8.8,0,0,0-.19-.93,55,55,0,1,0-4,85.19.79.79,0,0,0,.32-.63A.8.8,0,0,0,1287.28,429.52Z"/><path class="cls-3" d="M1309.34,381.46a.8.8,0,0,0-.28-.54c-11.48-9.53-20.77-13.42-32.06-13.42-6,0-10.64,1.21-13.72,3.59a10.17,10.17,0,0,0-4.09,8.31c0,9.45,11.56,13.76,24.93,18.75,6.9,2.57,14,5.23,20.57,8.86a.83.83,0,0,0,.38.1.86.86,0,0,0,.27-.05.82.82,0,0,0,.47-.46,54.9,54.9,0,0,0,3.76-20.06C1309.57,384.92,1309.5,383.21,1309.34,381.46Z"/><path class="cls-3" d="M1625.63,415.78a2.53,2.53,0,0,0,2.38-2.47V389.44c0-12.21-1.49-21.67-17.21-21.67a52.59,52.59,0,0,0-16.89,2.77,2.21,2.21,0,0,0-1.59,2.86l1,4c.32,1.38,1.27,2.34,2.76,2a50.57,50.57,0,0,1,13.7-2.34c6.16,0,8.07,3.51,7.86,11.26a37.68,37.68,0,0,0-9.88-1.49c-12.64,0-19.65,6.8-19.65,15.83,0,10.2,6.47,13.65,15.71,13.65,7.54,0,15.3-.09,18.53-.3Zm-8.14-8.66c-1.48,2.45-6.8,1.84-11.36,1.74-5.1-.1-7.65-1.89-7.65-6.25,0-5.1,4.36-8.07,10.09-8.07a22.33,22.33,0,0,1,8.92,1.7Z"/><path class="cls-3" d="M1705.83,367.21a5.57,5.57,0,1,0-5.59-5.56A5.57,5.57,0,0,0,1705.83,367.21Zm0-10.32a4.76,4.76,0,1,1-4.7,4.76A4.75,4.75,0,0,1,1705.83,356.89Z"/><path class="cls-3" d="M1703.93,364.46h.53a.15.15,0,0,0,.15-.15v-2.05h1.21l1.06,2.1a.16.16,0,0,0,.17.1h.6a.15.15,0,0,0,.14-.23l-1.11-2a1.8,1.8,0,0,0,1.2-1.64,1.74,1.74,0,0,0-1.76-1.72h-2.19a.15.15,0,0,0-.15.15v5.33A.15.15,0,0,0,1703.93,364.46Zm.69-4.85h1.44a1,1,0,0,1,1,1,1,1,0,0,1-1,1h-1.44Z"/><path class="cls-3" d="M1396.1,367.21a22.69,22.69,0,0,0-13.64,4.89v-21a2.41,2.41,0,0,0-2.24-2.24h-5.69a2.33,2.33,0,0,0-2.24,2.24v63a2.26,2.26,0,0,0,2.24,2.24h5.59a2.16,2.16,0,0,0,2.34-2.24V383.7a14,14,0,0,1,12.31-6.82c6.11,0,9.37,4.58,9.37,12.31v24.94a2.25,2.25,0,0,0,2.23,2.24h5.7a2.33,2.33,0,0,0,2.24-2.24V389.4C1414.31,376.58,1409.43,367.21,1396.1,367.21Z"/><path class="cls-3" d="M1515.29,389.89c-.56-16-7.25-22.68-22.66-22.68A64.92,64.92,0,0,0,1475.1,370c-1.6.69-2.79,1.51-2.79,2.63v59.84a2.26,2.26,0,0,0,2.24,2.24h4.73a2.2,2.2,0,0,0,2.44-2.24V415.56a85,85,0,0,0,14.84.8c10.88-.34,18.18-8.24,18.79-21.58a59.26,59.26,0,0,0,0-6Zm-9.83,4.87c-.21,9.05-2.84,13.05-10.46,13.47-3.77.2-12.67-.84-12.67-.84-.37-.12-.62-.28-.62-.62V378a.55.55,0,0,1,.48-.54,48.72,48.72,0,0,1,10.45-1.35c9.28,0,12.55,1.37,12.85,13.11C1505.5,390.8,1505.5,393,1505.46,394.76Z"/><path class="cls-3" d="M1582.68,368.23h-4.27c-1.22,0-3,0-3.56,1.43l-7.53,27.06h-.2l-12.62-28.39a2,2,0,0,0-2-1.12h-.71a2.14,2.14,0,0,0-1.93,1.12l-12.72,28.29h-.2l-7.74-27a2.07,2.07,0,0,0-2-1.43H1521a1.69,1.69,0,0,0-1.62,2.65l13.73,44.26a1.86,1.86,0,0,0,1.93,1.22h.62a1.79,1.79,0,0,0,1.83-1.12L1552,383.29h.2l14.34,31.95a2.2,2.2,0,0,0,2,1.12h.41a2.14,2.14,0,0,0,2.13-1.22l13.43-44.26C1585.23,369.45,1584.31,368.23,1582.68,368.23Z"/><path class="cls-3" d="M1657.74,367.77c-.25,0-.48,0-.72,0-.42,0-.82,0-1.25,0-2.44,0-4.78.08-7,.19h0c-4.22.17-6.72.49-8.5.69,0,0-1.13.1-2.47.28a2.77,2.77,0,0,0-1.93,1,1.55,1.55,0,0,0-.44,1.11v43.09a2.26,2.26,0,0,0,2.24,2.24h4.68c1.93,0,3.25-.21,3.25-2.24V385h0v-6.68c0-.28.44-.63.68-.77,1.16-.69,3.91-1.19,9.46-1.19l1.29,0a14.59,14.59,0,0,1,3.94.89,2,2,0,0,0,2.85-1.12l2.44-4C1667.81,369,1662.22,367.77,1657.74,367.77Z"/><path class="cls-3" d="M1690,367.21c-14.15,0-23.41,11.3-23.41,24.53,0,13.42,9.26,24.62,23.51,24.62,7.83,0,14-2.85,17.4-5.8,1.42-1.22,1-2.14.2-3.16l-2.75-4.27c-.81-1.22-1.73-.92-2.74-.2a18.28,18.28,0,0,1-11.5,4c-8.24,0-13.94-6.52-14-12.82h32.46a2.2,2.2,0,0,0,2.13-2c.1-.81.2-2.44.2-3.26C1711.41,376.27,1702.16,367.21,1690,367.21Zm-12.82,19.33c.71-5.9,5.19-10.68,12.61-10.68,6.92,0,11.4,5,11.6,10.68Z"/><path class="cls-3" d="M1464.15,381.75a23,23,0,0,0-4.46-7.79,19.57,19.57,0,0,0-6.84-5,26.68,26.68,0,0,0-19.06,0,19.69,19.69,0,0,0-6.85,5,23.16,23.16,0,0,0-4.46,7.79,32.62,32.62,0,0,0,0,20.12,23.21,23.21,0,0,0,4.46,7.74,19.69,19.69,0,0,0,6.85,5,26.68,26.68,0,0,0,19.06,0,19.57,19.57,0,0,0,6.84-5,23,23,0,0,0,4.46-7.74,32.62,32.62,0,0,0,0-20.12Zm-21.1,26.51c-8.49,0-12.76-7.19-12.76-16.06s4.27-16.06,12.76-16.06,12.78,7.19,12.78,16.06S1451.54,408.26,1443.05,408.26Z"/></svg>