<svg id="Ebene_1" data-name="Ebene 1" xmlns="http://www.w3.org/2000/svg" viewBox="0 0 102 86"><defs><style>.cls-1{fill:#41b783;}.cls-2{fill:#34495e;}</style></defs><title>Zeichenfläche 1</title><path class="cls-1" d="M71.75,52.54c-1.62,4.1-2.3,6.19-5.29,9.45-2.65,6.43-2.27,6.8-8.7,7-3.76.27-8.48-.88-12-2a45,45,0,0,1-9.4-4.4,4.73,4.73,0,0,1-1.49-1c.45,0,.86.07,1.27.12,3.88.5,7.66.3,11.1-1.81a7.47,7.47,0,0,0,3.44-4.18,3.52,3.52,0,0,0-2.29-4.63,14.8,14.8,0,0,0-7.27-.32,47.4,47.4,0,0,1-6.91.93,24.92,24.92,0,0,1-8.42-1,8.58,8.58,0,0,1-4.79-4c1-.12,1.85-.23,2.74-.36a8.55,8.55,0,0,0,5.46-3.18,5.66,5.66,0,0,0,1-5.14,11.07,11.07,0,0,0-7.07-8.25c-2.58-1-4.89-.57-7,1.86a10.94,10.94,0,0,1-7,4,6.74,6.74,0,0,1-4.11-.92A16.28,16.28,0,0,1,0,29.87a5.41,5.41,0,0,1,2,.34,15.51,15.51,0,0,0,5.38.45c2.93-.37,5.33-1.94,5.69-4.83.23-1.78-.05-2.77.44-4.49C13.9,20,16,18.13,17.11,17.56a24.51,24.51,0,0,1,6.62-.94c4.35-.19,4,0,9.27,1.13,3.4.57,4.22-.12,6,.94,2.2,1.28.57,2.57,2.84,1.33,1.7-.93.55,1.26,1-.53"/><polygon class="cls-1" points="31.29 17.75 34.89 17.75 63.62 67.85 92.74 17.75 101.62 17.75 63.62 67.85 31.29 17.75"/><polygon class="cls-2" points="34.89 17.75 52.66 17.75 63.81 37.03 74.97 17.75 92.74 17.75 63.62 67.85 34.89 17.75"/></svg>